<svg width="70" height="68" viewBox="0 0 233 232" fill="none" xmlns="http://www.w3.org/2000/svg">
<path d="M0 58V116H3H6V60.5V5H116.5H227V115.5V226H172H117V229V232L174.8 231.8L232.5 231.5L232.8 115.7L233 0H116.5H0V58Z" fill="black"/>
<path d="M110.799 72.8752C110.799 76.1927 111.831 77.2985 115.739 77.8883C121.563 78.773 121.12 76.5613 121.12 105.682C121.12 131.411 120.678 137.899 118.54 142.027C117.95 143.207 117.434 144.386 117.434 144.828C117.434 145.197 115.665 146.745 113.601 148.146C109.841 150.726 109.693 150.726 101.805 150.726C97.4555 150.726 93.5482 151.095 93.1796 151.464C92.8109 151.906 92.3686 154.044 92.2212 156.255L92 160.237L95.3175 160.9C97.1606 161.195 101.658 161.342 105.27 161.195C116.845 160.753 125.765 155.445 129.672 146.819C133.137 139.004 133.211 138.636 133.58 107.967L134.022 78.5518L137.339 77.8883C141.689 77.0036 142.5 76.2664 142.5 72.8752V70H126.65H110.799V72.8752Z" fill="black"/>
<ellipse cx="54.5" cy="56.1689" rx="7.5" ry="7.16895" fill="black"/>
</svg>
