<svg width="80" height="80" viewBox="0 0 80 80" fill="none" xmlns="http://www.w3.org/2000/svg">
<rect width="80" height="80" fill="black"/>
<ellipse cx="15.2867" cy="12.3288" rx="3.82166" ry="4.10959" fill="white"/>
<path d="M35.4 55.07C36.8 55.03 37.83 54.51 38.49 53.51C39.17 52.51 39.51 50.82 39.51 48.44V31.94C39.51 31.18 39.45 30.63 39.33 30.29C39.21 29.95 38.98 29.72 38.64 29.6C38.32 29.48 37.8 29.4 37.08 29.36V28.76C37.92 28.82 39.18 28.85 40.86 28.85C42.5 28.85 43.79 28.82 44.73 28.76V29.36C44.01 29.4 43.48 29.48 43.14 29.6C42.82 29.72 42.6 29.95 42.48 30.29C42.36 30.63 42.3 31.18 42.3 31.94V42.92C42.3 44.62 42.27 46.13 42.21 47.45C42.15 48.75 42.01 49.85 41.79 50.75C41.43 52.21 40.69 53.39 39.57 54.29C38.47 55.19 37.08 55.64 35.4 55.64V55.07Z" fill="white"/>
</svg>
